<svg width="208" height="96" viewBox="0 0 208 96" fill="none" xmlns="http://www.w3.org/2000/svg">
<path fill-rule="evenodd" clip-rule="evenodd" d="M79.1721 38.6024L89.7259 32.2283C88.9683 30.5564 88.472 28.5971 88.1062 26.7423C86.2575 17.2125 89.0025 7.76043 96.7291 3.06836L86.2515 9.39643C78.4928 14.0725 75.6976 23.5553 77.5524 33.1165C77.892 34.9451 78.4145 36.9043 79.1721 38.6024ZM120.865 34.8145L110.311 41.1886C113.027 38.3934 113.811 35.0496 113.08 31.3662C111.983 25.7497 107.359 20.4728 100.096 20.7079C98.3154 20.7595 96.8149 21.1937 95.6202 21.9097L106.131 15.5616C107.359 14.8302 108.848 14.3861 110.676 14.3338C117.939 14.0987 122.563 19.3756 123.66 24.9921C124.365 28.6755 123.607 32.0193 120.865 34.8145ZM116.528 39.4128L105.974 45.7607L110.337 41.1891L120.864 34.815L116.528 39.4128ZM113.994 68.4094L124.548 62.0614L112.819 62.4271L112.819 62.4274C112.717 62.0941 112.612 61.763 112.508 61.4314L112.508 61.4313C112.104 60.1515 111.699 58.864 111.408 57.4117C110.154 50.9592 111.382 44.8725 116.528 39.4127L105.974 45.7868C100.828 51.2466 99.6003 57.3072 100.854 63.7858C101.165 65.4616 101.652 66.9399 102.133 68.4017C102.177 68.5351 102.221 68.6683 102.265 68.8015L102.265 68.8012L113.994 68.4094ZM103.519 32.4378L92.9649 38.7858L79.1979 38.6029L89.7256 32.2288L103.519 32.4378ZM117.129 95.003L127.671 88.636C126.681 89.2326 125.536 89.5956 124.235 89.6216C119.454 89.7783 114.83 85.6247 113.785 80.2172C113.003 76.2545 114.407 72.7602 117.087 71.1362L106.549 77.5003C103.859 79.12 102.448 82.6205 103.232 86.5913C104.277 91.9988 108.9 96.1524 113.681 95.9957C114.961 95.9434 116.137 95.6038 117.129 95.003Z" fill="url(#paint0_linear_1542_259)"/>
<path d="M107.882 0.0185156C124.679 -0.530075 135.782 11.1993 138.185 23.5557C140.066 33.2213 137.088 40.2224 131.68 45.5777L127.945 49.2872C124.757 52.4481 123.425 56.3144 124.418 61.3301L124.575 62.0615L112.871 62.4272C112.349 60.8337 111.8 59.2402 111.461 57.4115C110.207 50.933 111.435 44.8723 116.581 39.4126L120.943 34.841C123.66 32.0458 124.444 28.702 123.713 25.0186C122.615 19.4021 117.992 14.1251 110.729 14.3602C103.049 14.5954 101.037 21.7009 102.37 28.5452C102.657 30.0081 103.049 31.3666 103.598 32.4376L89.8305 32.2547C89.0729 30.5567 88.5505 28.5975 88.2109 26.7688C85.5463 13.5504 91.842 0.51486 107.882 0.0185156Z" fill="url(#paint1_linear_1542_259)"/>
<path d="M120.448 70.1861C125.202 70.0293 129.956 74.3135 131.001 79.695C132.046 85.1025 128.99 89.4912 124.209 89.648C119.429 89.8047 114.805 85.6511 113.76 80.2435C112.767 74.8621 115.693 70.3428 120.448 70.1861Z" fill="url(#paint2_linear_1542_259)"/>
<path d="M158.787 61C157.088 61 156.222 60.2076 155.458 59.5084C154.768 58.877 154.223 58.3783 153.059 58.3783C151.894 58.3783 151.35 58.877 150.66 59.5084C149.896 60.2076 149.03 61 147.33 61C145.63 61 144.765 60.2076 144.001 59.5084C143.311 58.877 142.766 58.3783 141.602 58.3783C140.438 58.3783 139.893 58.877 139.203 59.5084C138.439 60.2076 137.573 61 135.873 61C134.174 61 133.308 60.2076 132.544 59.5084C131.855 58.877 131.31 58.3783 130.146 58.3783C128.982 58.3783 128.437 58.877 127.747 59.5084C126.983 60.2076 126.118 61 124.418 61C122.718 61 121.852 60.2076 121.088 59.5084C120.398 58.877 119.853 58.3783 118.689 58.3783C118.309 58.3783 118 58.0698 118 57.6892C118 57.3086 118.309 57 118.689 57C120.389 57 121.255 57.7924 122.019 58.4916C122.708 59.123 123.253 59.6217 124.418 59.6217C125.582 59.6217 126.127 59.123 126.816 58.4917C127.58 57.7924 128.446 57 130.146 57C131.846 57 132.711 57.7925 133.475 58.4917C134.165 59.1231 134.709 59.6217 135.873 59.6217C137.038 59.6217 137.583 59.123 138.272 58.4917C139.036 57.7924 139.902 57 141.602 57C143.302 57 144.167 57.7924 144.931 58.4917C145.621 59.123 146.166 59.6217 147.33 59.6217C148.495 59.6217 149.039 59.123 149.729 58.4917C150.493 57.7924 151.359 57 153.059 57C154.759 57 155.625 57.7924 156.389 58.4917C157.078 59.123 157.623 59.6217 158.787 59.6217C159.952 59.6217 160.497 59.123 161.187 58.4916C161.951 57.7924 162.817 57 164.517 57C164.897 57 165.206 57.3086 165.206 57.6892C165.206 58.0698 164.897 58.3783 164.517 58.3783C163.352 58.3783 162.807 58.877 162.117 59.5084C161.353 60.2076 160.488 61 158.787 61Z" fill="#F9C270"/>
<g opacity="0.4">
<path d="M174.913 93.4C174.913 91.9641 176.077 90.8 177.513 90.8C178.949 90.8 180.113 91.9641 180.113 93.4V96H174.913V93.4Z" fill="#D5D9FF"/>
<path d="M50.2666 37.9333C50.2666 36.4973 51.4307 35.3333 52.8666 35.3333C54.3025 35.3333 55.4666 36.4973 55.4666 37.9333V40.5333H50.2666V37.9333Z" fill="#D5D9FF"/>
<rect x="30.3335" y="7.6001" width="5.2" height="5.2" fill="#D5D9FF"/>
<rect x="202.646" y="46.5999" width="5.2" height="5.2" fill="#D5D9FF"/>
<path d="M169.329 46.7646C169.329 45.3286 170.493 44.1646 171.929 44.1646H174.529V46.7645C174.529 48.2005 173.365 49.3646 171.929 49.3646C170.493 49.3646 169.329 48.2005 169.329 46.7646Z" fill="#D5D9FF"/>
<path d="M0 54.4C0 52.9641 1.16406 51.8 2.6 51.8H5.2V54.4C5.2 55.836 4.03594 57 2.6 57C1.16406 57 0 55.836 0 54.4Z" fill="#D5D9FF"/>
<path d="M43.3053 87.2H37.2666L40.1602 82L43.3053 87.2Z" fill="#D5D9FF"/>
<path d="M190.485 10.2H184.446L187.34 5L190.485 10.2Z" fill="#D5D9FF"/>
</g>
<defs>
<linearGradient id="paint0_linear_1542_259" x1="106.929" y1="-2.15174" x2="60.4638" y2="19.4213" gradientUnits="userSpaceOnUse">
<stop stop-color="#7683F6"/>
<stop offset="1" stop-color="#7683F6" stop-opacity="0"/>
</linearGradient>
<linearGradient id="paint1_linear_1542_259" x1="125.298" y1="5.01762" x2="73.3981" y2="23.3" gradientUnits="userSpaceOnUse">
<stop stop-color="#9CA5FB"/>
<stop offset="1" stop-color="white"/>
</linearGradient>
<linearGradient id="paint2_linear_1542_259" x1="131" y1="70" x2="108.879" y2="89.952" gradientUnits="userSpaceOnUse">
<stop stop-color="#9CA5FB"/>
<stop offset="1" stop-color="white"/>
</linearGradient>
</defs>
</svg>
